<?xml version="1.0" standalone="no"?>
<!DOCTYPE svg PUBLIC "-//W3C//DTD SVG 20010904//EN"
 "http://www.w3.org/TR/2001/REC-SVG-20010904/DTD/svg10.dtd">
<svg version="1.0" xmlns="http://www.w3.org/2000/svg"
 width="2080.000000pt" height="741.000000pt" viewBox="0 0 2080.000000 741.000000"
 preserveAspectRatio="xMidYMid meet">

<g transform="translate(0.000000,741.000000) scale(0.100000,-0.100000)"
fill="#000000" stroke="none">
<path d="M4210 5450 c-267 -37 -482 -119 -693 -262 -122 -83 -334 -294 -414
-413 -258 -383 -335 -860 -214 -1330 69 -264 201 -487 410 -695 223 -221 471
-356 773 -422 70 -15 145 -21 303 -25 183 -5 226 -3 334 16 420 72 780 306
1030 671 200 291 291 649 261 1025 -31 385 -173 700 -436 971 -228 233 -495
380 -812 445 -111 23 -433 34 -542 19z m415 -815 c204 -56 394 -212 495 -407
58 -110 81 -209 81 -343 1 -238 -75 -413 -253 -581 -147 -139 -312 -204 -518
-204 -170 0 -277 28 -414 108 -83 49 -223 191 -274 277 -111 191 -136 425 -67
642 79 250 311 457 580 517 88 20 283 15 370 -9z"/>
<path d="M16149 5445 c-345 -47 -646 -199 -899 -455 -171 -174 -303 -387 -373
-606 -103 -322 -101 -717 8 -1039 121 -362 429 -711 780 -885 133 -66 229 -99
379 -133 89 -19 129 -22 346 -22 215 1 257 3 343 23 317 71 573 216 803 454
215 224 354 492 410 793 27 141 27 468 0 610 -59 320 -197 577 -435 815 -262
261 -537 399 -889 445 -135 18 -341 18 -473 0z m456 -815 c228 -71 433 -259
516 -474 73 -191 62 -440 -28 -621 -93 -184 -265 -335 -458 -401 -67 -23 -101
-28 -216 -32 -164 -5 -256 14 -389 80 -71 35 -103 60 -191 148 -93 92 -112
117 -152 200 -26 52 -54 122 -62 155 -52 206 -14 444 100 614 90 136 250 264
397 317 136 49 350 55 483 14z"/>
<path d="M1085 5420 c-138 -16 -271 -56 -400 -119 -327 -160 -508 -387 -556
-694 -7 -42 -9 -126 -6 -202 18 -446 276 -714 816 -849 53 -14 179 -41 279
-61 196 -38 239 -54 288 -107 66 -69 81 -145 45 -223 -47 -103 -212 -175 -406
-175 -219 0 -414 74 -612 233 -47 37 -86 67 -88 65 -10 -13 -420 -546 -428
-555 -14 -18 1 -32 101 -101 216 -148 534 -270 822 -317 122 -19 394 -20 520
0 271 41 487 145 673 325 211 202 296 410 284 690 -17 377 -158 621 -442 763
-104 52 -205 80 -465 131 -314 61 -445 107 -504 176 -35 42 -41 72 -26 137 28
127 151 193 358 193 153 0 285 -51 401 -157 l61 -55 30 25 c100 85 500 451
500 458 0 17 -74 91 -134 134 -95 67 -163 104 -276 150 -259 107 -600 161
-835 135z"/>
<path d="M19461 5419 c-327 -35 -659 -220 -821 -460 -101 -148 -143 -295 -143
-499 1 -332 118 -560 376 -728 148 -97 348 -163 694 -232 222 -43 282 -66 331
-126 17 -20 36 -58 42 -84 42 -177 -169 -312 -464 -297 -135 7 -213 26 -332
82 -105 49 -186 101 -262 170 -45 41 -55 46 -66 34 -8 -8 -109 -138 -225 -289
l-212 -274 23 -19 c137 -110 352 -222 565 -294 225 -75 329 -94 553 -100 270
-8 441 19 628 96 303 126 554 394 622 665 25 99 27 312 5 441 -55 313 -242
534 -539 636 -45 16 -204 53 -353 84 -285 57 -378 85 -454 137 -60 40 -79 74
-79 135 0 145 137 233 362 233 150 0 274 -47 399 -152 l70 -59 262 236 c144
130 263 240 265 244 5 14 -111 121 -180 167 -193 129 -503 228 -788 254 -129
11 -160 11 -279 -1z"/>
<path d="M7737 5394 c-178 -27 -374 -92 -507 -167 -413 -231 -705 -614 -799
-1048 -37 -170 -41 -289 -41 -1096 l0 -783 405 0 404 0 3 813 c3 803 4 813 26
892 37 133 95 236 190 337 131 137 233 197 406 239 154 36 360 17 510 -49 106
-48 255 -173 326 -278 41 -59 95 -175 117 -249 15 -54 17 -143 21 -882 l3
-823 404 0 404 0 3 838 3 837 28 80 c44 125 99 209 206 315 108 108 199 162
337 202 67 20 101 23 224 22 128 -1 155 -4 229 -27 254 -81 461 -294 537 -552
16 -55 18 -131 21 -887 l4 -828 404 0 405 0 0 806 c0 907 -2 879 75 1039 153
316 503 500 842 441 191 -33 294 -87 439 -231 88 -87 107 -112 147 -195 87
-176 81 -110 85 -1037 l3 -823 405 0 405 0 -3 863 c-3 852 -4 863 -26 970 -65
310 -193 554 -406 775 -283 294 -592 448 -988 491 -387 43 -773 -47 -1080
-252 -98 -65 -232 -179 -271 -230 l-27 -36 -88 87 c-213 211 -483 353 -785
414 -98 20 -141 23 -342 23 -201 -1 -243 -4 -335 -23 -299 -65 -559 -202 -761
-401 l-97 -96 -75 76 c-231 234 -531 383 -872 434 -124 19 -397 18 -518 -1z"/>
<path d="M9311 1560 c-50 -71 -91 -132 -91 -135 0 -3 39 -5 88 -5 l87 0 105
85 c58 47 106 89 108 93 2 8 -182 92 -200 92 -3 0 -47 -58 -97 -130z"/>
<path d="M6342 1271 c-226 -56 -408 -231 -468 -451 -24 -87 -24 -253 0 -339
99 -363 476 -561 839 -440 76 25 177 84 235 136 l43 38 -64 69 -63 69 -48 -37
c-156 -119 -330 -142 -493 -66 -331 153 -339 636 -13 800 168 85 367 56 507
-73 l45 -41 16 21 c10 12 39 49 65 82 l48 60 -63 47 c-174 129 -385 174 -586
125z"/>
<path d="M7400 651 l0 -641 105 0 105 0 0 195 0 195 177 -2 177 -3 114 -192
114 -193 120 0 c93 0 118 3 112 13 -4 6 -67 103 -140 213 l-132 201 32 16
c153 74 236 234 223 431 -13 198 -119 327 -311 380 -61 16 -116 20 -383 23
l-313 5 0 -641z m685 404 c45 -23 66 -42 90 -79 27 -45 30 -58 30 -130 0 -120
-38 -181 -140 -228 -46 -21 -67 -23 -252 -26 l-203 -4 0 252 0 251 208 -3 209
-3 58 -30z"/>
<path d="M8890 650 l0 -640 455 0 455 0 0 100 0 100 -350 0 -350 0 0 175 0
175 305 0 305 0 0 95 0 95 -305 0 -305 0 0 170 0 170 340 0 340 0 0 100 0 100
-445 0 -445 0 0 -640z"/>
<path d="M10255 1279 c-3 -8 -4 -295 -3 -639 l3 -625 310 0 c293 0 314 2 390
23 116 34 190 77 275 162 125 124 180 261 180 450 0 188 -54 325 -180 451 -81
82 -170 134 -285 165 -83 23 -682 34 -690 13z m678 -218 c72 -28 179 -125 213
-193 119 -234 37 -506 -184 -616 l-76 -37 -213 -3 -213 -3 0 441 0 441 208 -3
c188 -3 212 -6 265 -27z"/>
<path d="M11835 1278 c-3 -7 -4 -294 -3 -638 l3 -625 105 0 105 0 0 635 0 635
-103 3 c-76 2 -104 -1 -107 -10z"/>
<path d="M12420 1190 l0 -100 200 0 200 0 0 -540 0 -541 103 3 102 3 3 538 2
537 195 0 195 0 0 100 0 100 -500 0 -500 0 0 -100z"/>
<path d="M14112 1271 c-218 -55 -386 -209 -459 -418 -24 -69 -27 -93 -27 -203
0 -114 2 -133 30 -210 38 -109 88 -183 175 -264 123 -114 270 -168 454 -169
189 0 348 64 475 192 127 128 183 263 184 446 1 121 -13 184 -65 291 -73 150
-210 268 -372 320 -112 36 -287 43 -395 15z m260 -182 c120 -25 246 -116 301
-216 72 -133 74 -301 6 -436 -37 -72 -131 -160 -212 -198 -68 -32 -78 -34
-182 -34 -106 0 -113 1 -185 36 -99 48 -171 120 -219 219 -35 73 -36 78 -36
190 0 109 2 119 32 183 91 191 297 298 495 256z"/>
</g>
</svg>
